<svg xmlns="http://www.w3.org/2000/svg" xmlns:xlink="http://www.w3.org/1999/xlink" width="800" zoomAndPan="magnify" viewBox="0 0 600 599.999999" height="800" preserveAspectRatio="xMidYMid meet" version="1.0"><path stroke-linecap="butt" transform="matrix(0.749274, -0.032998, 0.032998, 0.749274, 364.994164, 427.166594)" fill="none" stroke-linejoin="miter" d="M -0.00202283 1.998471 L 119.363489 2.000231 " stroke="#000000" stroke-width="4" stroke-opacity="1" stroke-miterlimit="4"/><path fill="#e6faff" d="M 522.671875 299.824219 C 522.671875 177.152344 422.847656 77.328125 299.824219 77.328125 C 177.152344 77.328125 77.328125 177.152344 77.328125 299.824219 C 77.328125 422.496094 177.152344 522.671875 299.824219 522.671875 C 422.496094 522.671875 522.671875 422.847656 522.671875 299.824219 Z M 522.671875 299.824219 " fill-opacity="1" fill-rule="evenodd"/><path fill="#01d0fb" d="M 600 299.824219 C 600 465.378906 465.378906 600 299.824219 600 C 134.621094 600 0 465.378906 0 299.824219 C 0 134.621094 134.621094 0 299.824219 0 C 465.378906 0 600 134.621094 600 299.824219 Z M 86.820312 299.824219 C 86.820312 417.574219 182.425781 513.179688 299.824219 513.179688 C 417.574219 513.179688 513.179688 417.574219 513.179688 299.824219 C 513.179688 182.425781 417.574219 86.820312 299.824219 86.820312 C 182.425781 86.820312 86.820312 182.425781 86.820312 299.824219 Z M 86.820312 299.824219 " fill-opacity="1" fill-rule="evenodd"/><path fill="#e74c3c" d="M 320.914062 204.21875 L 320.914062 274.515625 C 320.914062 286.117188 311.421875 295.605469 299.824219 295.605469 C 288.226562 295.605469 278.734375 286.117188 278.734375 274.515625 L 278.734375 204.21875 C 278.734375 192.617188 288.226562 183.128906 299.824219 183.128906 C 311.421875 183.128906 320.914062 192.617188 320.914062 204.21875 Z M 418.628906 297.714844 C 418.628906 329.351562 406.328125 359.226562 383.832031 381.722656 C 337.433594 428.121094 262.214844 428.121094 215.816406 381.722656 C 169.421875 335.324219 169.421875 260.105469 215.816406 213.707031 C 224.253906 205.625 237.609375 205.625 245.695312 213.707031 C 254.128906 222.144531 254.128906 235.148438 245.695312 243.585938 C 215.816406 273.460938 215.816406 321.96875 245.695312 351.84375 C 275.570312 381.722656 324.078125 381.722656 354.304688 351.84375 C 368.71875 337.433594 376.449219 318.101562 376.449219 297.714844 C 376.449219 277.328125 368.71875 257.996094 354.304688 243.585938 C 345.871094 235.148438 345.871094 222.144531 354.304688 213.707031 C 362.390625 205.625 375.746094 205.625 383.832031 213.707031 C 406.328125 236.203125 418.628906 266.082031 418.628906 297.714844 Z M 418.628906 297.714844 " fill-opacity="1" fill-rule="evenodd"/></svg>