<svg xmlns="http://www.w3.org/2000/svg" xmlns:xlink="http://www.w3.org/1999/xlink" width="800" zoomAndPan="magnify" viewBox="0 0 600 599.999999" height="800" preserveAspectRatio="xMidYMid meet" version="1.0"><path stroke-linecap="butt" transform="matrix(0.749274, -0.032998, 0.032998, 0.749274, 431.952606, 505.941214)" fill="none" stroke-linejoin="miter" d="M 0.00114161 2.002245 L 119.361679 1.998572 " stroke="#000000" stroke-width="4" stroke-opacity="1" stroke-miterlimit="4"/><path fill="#000000" d="M 353.808594 391.71875 L 391.703125 353.820312 L 468.640625 430.757812 L 430.746094 468.652344 Z M 353.808594 391.71875 " fill-opacity="1" fill-rule="nonzero"/><path fill="#000000" d="M 590.144531 509.261719 C 606.886719 526.007812 606.886719 553.179688 590.144531 569.945312 L 569.921875 590.144531 C 553.15625 606.910156 526.007812 606.910156 509.261719 590.144531 L 400.90625 481.761719 C 384.136719 464.996094 384.136719 437.847656 400.882812 421.101562 L 421.101562 400.882812 C 437.847656 384.136719 465.042969 384.136719 481.785156 400.882812 Z M 590.144531 509.261719 " fill-opacity="1" fill-rule="nonzero"/><path fill="#000000" d="M 230.148438 -0.28125 C 102.863281 -0.28125 -0.28125 102.863281 -0.28125 230.148438 C -0.28125 357.433594 102.863281 460.601562 230.148438 460.601562 C 357.433594 460.601562 460.601562 357.433594 460.601562 230.148438 C 460.601562 102.863281 357.433594 -0.28125 230.148438 -0.28125 Z M 230.148438 417.953125 C 126.394531 417.953125 42.320312 333.902344 42.320312 230.148438 C 42.320312 126.394531 126.394531 42.34375 230.148438 42.34375 C 333.902344 42.34375 417.976562 126.394531 417.976562 230.148438 C 417.976562 333.902344 333.902344 417.953125 230.148438 417.953125 Z M 230.148438 417.953125 " fill-opacity="1" fill-rule="nonzero"/><path fill="#000000" d="M 277.398438 344.214844 C 185.480469 344.214844 110.917969 269.671875 110.917969 177.730469 C 110.917969 175.289062 111.175781 172.894531 111.292969 170.449219 C 99.152344 190.085938 92.035156 213.167969 92.035156 237.921875 C 92.035156 309.011719 149.667969 366.617188 220.730469 366.617188 C 248.183594 366.617188 273.546875 357.976562 294.472656 343.34375 C 288.859375 343.953125 283.152344 344.214844 277.398438 344.214844 Z M 277.398438 344.214844 " fill-opacity="1" fill-rule="nonzero"/></svg>